<svg xmlns="http://www.w3.org/2000/svg" width="20" height="21" fill="none"><path fill="#5F5F5F" fill-rule="evenodd" d="M5.917 10.612a.75.75 0 01.75-.75h6.667a.75.75 0 010 1.5H6.667a.75.75 0 01-.75-.75z" clip-rule="evenodd"/><path fill="#5F5F5F" fill-rule="evenodd" d="M10 6.528a.75.75 0 01.75.75v6.667a.75.75 0 01-1.5 0V7.278a.75.75 0 01.75-.75z" clip-rule="evenodd"/><path fill="#5F5F5F" fill-rule="evenodd" d="M2.49 3.102C3.639 1.955 5.344 1.528 7.5 1.528h5c2.158 0 3.863.427 5.01 1.574 1.147 1.147 1.574 2.852 1.574 5.01v5c0 2.157-.427 3.862-1.574 5.01-1.147 1.146-2.852 1.573-5.01 1.573h-5c-2.157 0-3.862-.427-5.01-1.574C1.345 16.974.918 15.27.918 13.111v-5c0-2.157.427-3.862 1.574-5.009zm1.061 1.06c-.728.729-1.134 1.94-1.134 3.95v5c0 2.009.406 3.22 1.134 3.948.729.729 1.94 1.135 3.95 1.135h5c2.009 0 3.22-.407 3.948-1.135.728-.728 1.135-1.939 1.135-3.948v-5c0-2.01-.407-3.221-1.135-3.95-.728-.727-1.94-1.134-3.949-1.134h-5c-2.009 0-3.22.407-3.949 1.135z" clip-rule="evenodd"/></svg>