<svg xmlns="http://www.w3.org/2000/svg" width="21" height="21" fill="currentColor"><path d="M10.889.5c-5.52 0-10 4.48-10 10s4.48 10 10 10 10-4.48 10-10-4.48-10-10-10zm4.37 12.35l-2.22 2.22c-.54.54-1.24.8-1.94.8a2.75 2.75 0 01-2.75-2.74c0-.73.29-1.43.81-1.94l1.41-1.41c.29-.29.77-.29 1.06 0 .29.29.29.77 0 1.06l-1.41 1.41a1.234 1.234 0 000 1.76c.49.49 1.28.49 1.77 0l2.22-2.22a3.253 3.253 0 00-4.6-4.6l-2.42 2.42a2.657 2.657 0 000 3.78c.29.29.29.77 0 1.06-.29.29-.77.29-1.06 0a4.05 4.05 0 01-1.24-2.94c0-1.12.43-2.17 1.22-2.96l2.42-2.42a4.762 4.762 0 016.72 0 4.753 4.753 0 01.01 6.72z" opacity=".93"/></svg>