<svg xmlns="http://www.w3.org/2000/svg" width="24" height="24" fill="currentColor"><path fill-rule="evenodd" d="M6.79 6.75a5.33 5.33 0 00-.686.037c-1.209.104-2.01.5-2.521 1.101-.52.61-.833 1.543-.833 2.902v4c0 1.935.394 2.851.942 3.33.574.5 1.515.71 3.098.71h.4c.263 0 .508.084.692.177.185.093.391.238.544.437l.004.006 1.201 1.601c.146.196.284.231.359.231.075 0 .213-.035.359-.23l.001-.002 1.2-1.6c.292-.389.754-.62 1.24-.62h.4c1.36 0 2.292-.312 2.902-.83.6-.509.997-1.31 1.1-2.524l.004-.03c.025-.197.034-.414.034-.656v-4c0-1.479-.37-2.452-.98-3.061-.608-.609-1.581-.98-3.06-.98h-6.4zm-.828-1.456c.277-.034.555-.044.828-.044h6.4c1.711 0 3.133.43 4.122 1.418.988.989 1.418 2.41 1.418 4.122v4c0 .273-.01.551-.044.828-.129 1.48-.642 2.693-1.623 3.526-.975.827-2.303 1.186-3.873 1.186h-.4a.05.05 0 00-.022.006.051.051 0 00-.018.014l-1.199 1.598c-.384.514-.942.834-1.561.834-.62 0-1.177-.319-1.56-.833l-1.185-1.58a.27.27 0 00-.077-.04H6.79c-1.607 0-3.06-.185-4.085-1.08-1.049-.915-1.455-2.395-1.455-4.46v-4c0-1.57.362-2.898 1.19-3.872.834-.981 2.047-1.494 3.522-1.623z" clip-rule="evenodd"/><path fill-rule="evenodd" d="M6.924 5.25h6.266c1.711 0 3.133.43 4.122 1.418.988.989 1.418 2.41 1.418 4.122v3.867c.749-.184 1.288-.517 1.668-.962.518-.61.832-1.54.832-2.905v-4c0-1.479-.37-2.452-.979-3.061s-1.582-.98-3.061-.98h-6.4c-1.359 0-2.29.314-2.902.834-.446.38-.78.919-.964 1.667zm-.007-2.81c.974-.829 2.302-1.19 3.873-1.19h6.4c1.711 0 3.133.43 4.122 1.418.988.989 1.418 2.41 1.418 4.122v4c0 1.576-.361 2.904-1.19 3.877-.837.983-2.056 1.494-3.536 1.62a.75.75 0 01-.808-.84c.025-.198.034-.415.034-.657v-4c0-1.479-.37-2.452-.979-3.061s-1.582-.98-3.061-.98h-6.4c-.242 0-.459.01-.657.035a.75.75 0 01-.84-.808c.126-1.481.64-2.7 1.624-3.536z" clip-rule="evenodd"/><path fill-rule="evenodd" d="M12.496 13.25a1 1 0 011-1h.009a1 1 0 110 2h-.01a1 1 0 01-1-1zm-3.5 0a1 1 0 011-1h.009a1 1 0 110 2h-.01a1 1 0 01-1-1zm-3.5 0a1 1 0 011-1h.009a1 1 0 110 2h-.01a1 1 0 01-1-1z" clip-rule="evenodd"/></svg>