<svg xmlns="http://www.w3.org/2000/svg" width="40" height="41" fill="none"><path fill="#D3D3D3" d="M20 3.383c-9.183 0-16.666 7.483-16.666 16.667 0 9.183 7.483 16.666 16.667 16.666 9.183 0 16.666-7.483 16.666-16.666 0-9.184-7.483-16.667-16.666-16.667zm5.6 20.5a1.258 1.258 0 010 1.767c-.25.25-.566.366-.883.366-.316 0-.633-.116-.883-.366l-3.833-3.834-3.834 3.834c-.25.25-.566.366-.883.366-.317 0-.633-.116-.883-.366a1.257 1.257 0 010-1.767l3.833-3.833-3.833-3.834a1.257 1.257 0 010-1.766 1.257 1.257 0 011.766 0l3.834 3.833 3.833-3.833a1.257 1.257 0 011.767 0 1.257 1.257 0 010 1.766l-3.834 3.834 3.834 3.833z"/></svg>