<svg xmlns="http://www.w3.org/2000/svg" width="24" height="24" fill="currentColor"><path fill-rule="evenodd" d="M17.91 2.75c-1.016 0-1.83.814-1.83 1.83 0 .978.752 1.766 1.704 1.828.08-.007.162-.007.242 0a1.84 1.84 0 001.714-1.83 1.83 1.83 0 00-1.83-1.828zm-3.33 1.83a3.323 3.323 0 013.33-3.33 3.33 3.33 0 013.33 3.33v.005a3.339 3.339 0 01-3.213 3.324.75.75 0 01-.122-.005.75.75 0 01-.122.005 3.323 3.323 0 01-3.203-3.33zm2.23 4.271c1.521-.266 3.255-.012 4.515.824h.001c.861.575 1.392 1.407 1.392 2.335 0 .928-.53 1.76-1.392 2.334-1.25.837-2.964 1.09-4.48.836a.75.75 0 01.248-1.48c1.223.206 2.53-.021 3.399-.603l.001-.001c.549-.366.724-.774.724-1.086 0-.312-.175-.72-.723-1.086-.88-.583-2.206-.81-3.425-.595a.75.75 0 01-.26-1.478zM2.73 4.58a3.33 3.33 0 013.33-3.33 3.323 3.323 0 013.33 3.33 3.323 3.323 0 01-3.203 3.33.75.75 0 01-.122-.006.75.75 0 01-.122.005A3.339 3.339 0 012.73 4.585V4.58zm1.5-.003a1.84 1.84 0 001.714 1.83c.08-.006.162-.006.242 0A1.823 1.823 0 007.89 4.58c0-1.016-.814-1.83-1.83-1.83a1.83 1.83 0 00-1.83 1.827zm-.755 6.347c.88-.583 2.206-.81 3.426-.595a.75.75 0 00.258-1.478c-1.52-.266-3.253-.012-4.514.824h-.001c-.861.575-1.392 1.407-1.392 2.335 0 .927.53 1.76 1.391 2.333 1.251.838 2.964 1.091 4.481.837a.75.75 0 00-.248-1.48c-1.223.206-2.53-.021-3.399-.603l-.001-.001c-.549-.366-.724-.774-.724-1.086 0-.312.175-.72.723-1.086zm8.435-.704c-1.016 0-1.83.814-1.83 1.83 0 .978.752 1.766 1.704 1.828.081-.008.164-.007.245 0 .943-.054 1.703-.844 1.711-1.83a1.83 1.83 0 00-1.83-1.828zm-3.33 1.83a3.323 3.323 0 013.33-3.33 3.33 3.33 0 013.33 3.33v.005c-.013 1.794-1.425 3.273-3.218 3.325a.734.734 0 01-.117-.006.756.756 0 01-.122.005 3.323 3.323 0 01-3.203-3.33zm3.424 4.185c1.168 0 2.377.29 3.322.92.861.575 1.392 1.407 1.392 2.335 0 .927-.53 1.76-1.392 2.334-.949.634-2.157.928-3.326.928s-2.377-.294-3.326-.928c-.862-.575-1.392-1.407-1.392-2.334 0-.928.53-1.76 1.392-2.334l.002-.001c.949-.63 2.159-.92 3.328-.92zm-2.499 2.17c-.548.365-.723.773-.723 1.085 0 .312.175.72.724 1.086.652.436 1.553.676 2.494.676.94 0 1.842-.24 2.493-.676.55-.366.724-.774.724-1.086 0-.313-.174-.72-.723-1.086-.645-.43-1.546-.67-2.49-.67-.944 0-1.848.24-2.499.67z" clip-rule="evenodd"/></svg>