<svg xmlns="http://www.w3.org/2000/svg" width="17" height="17" fill="currentColor"><path d="M14.808 15.136h-12a.504.504 0 01-.5-.5c0-.273.227-.5.5-.5h12c.273 0 .5.227.5.5 0 .274-.227.5-.5.5zM13.488 2.79c-1.293-1.294-2.56-1.327-3.887 0l-.806.806c-.067.067-.094.174-.067.267a5.42 5.42 0 003.687 3.687.267.267 0 00.273-.067l.8-.807c.66-.653.98-1.286.98-1.926.007-.66-.313-1.3-.98-1.96zm-2.273 5.366a5.861 5.861 0 01-.987-.573 4.03 4.03 0 01-.373-.287.814.814 0 01-.114-.1 5.639 5.639 0 01-.686-.693c-.02-.013-.054-.06-.1-.12-.067-.08-.18-.213-.28-.367-.08-.1-.174-.246-.26-.393a8.71 8.71 0 01-.294-.547c-.122-.262-.466-.34-.67-.135L3.7 8.69a.802.802 0 00-.186.366l-.36 2.554c-.067.453.06.88.34 1.167.24.233.573.36.933.36.08 0 .16-.007.24-.02l2.56-.36a.74.74 0 00.367-.187l3.755-3.755c.2-.2.125-.546-.135-.659z"/></svg>