<svg xmlns="http://www.w3.org/2000/svg" width="17" height="17" fill="none"><path stroke="#6E6E6E" stroke-linecap="round" stroke-linejoin="round" stroke-width="1.5" d="M10.617 8.31a2.384 2.384 0 01-2.387 2.387A2.384 2.384 0 015.843 8.31 2.384 2.384 0 018.23 5.923a2.384 2.384 0 012.387 2.387z"/><path stroke="#6E6E6E" stroke-linecap="round" stroke-linejoin="round" stroke-width="1.5" d="M8.23 13.823c2.353 0 4.547-1.386 6.073-3.786.6-.94.6-2.52 0-3.46-1.526-2.4-3.72-3.787-6.073-3.787S3.683 4.177 2.157 6.577c-.6.94-.6 2.52 0 3.46 1.526 2.4 3.72 3.786 6.073 3.786z"/></svg>