<svg xmlns="http://www.w3.org/2000/svg" width="24" height="24" fill="currentColor"><path fill-rule="evenodd" d="M9 2.75a3.686 3.686 0 00-3.69 3.69 3.67 3.67 0 003.505 3.679 2.62 2.62 0 01.362 0A3.686 3.686 0 009 2.749zM3.81 6.44A5.186 5.186 0 019 1.25a5.193 5.193 0 015.19 5.19v.003c-.012 2.8-2.219 5.083-5.005 5.177a.756.756 0 01-.1-.004 1.067 1.067 0 00-.187 0 .761.761 0 01-.093.004A5.17 5.17 0 013.81 6.44zM15.66 4a.75.75 0 01.75-.75 4.247 4.247 0 014.25 4.25 4.255 4.255 0 01-4.092 4.25.753.753 0 01-.12-.006.386.386 0 00-.085.001.75.75 0 11-.166-1.49 1.83 1.83 0 01.363-.007 2.755 2.755 0 002.6-2.748 2.747 2.747 0 00-2.75-2.75.75.75 0 01-.75-.75zm-6.488 8.437c1.929 0 3.895.484 5.414 1.5 1.366.908 2.149 2.183 2.149 3.554s-.782 2.648-2.148 3.562c-1.524 1.02-3.493 1.507-5.422 1.507-1.929 0-3.897-.487-5.421-1.506-1.366-.91-2.149-2.184-2.149-3.555 0-1.372.782-2.648 2.148-3.562l.003-.002c1.528-1.014 3.498-1.498 5.426-1.498zm-4.596 2.747c-1.054.706-1.481 1.559-1.481 2.315 0 .755.427 1.606 1.48 2.306l.002.002c1.226.82 2.887 1.253 4.588 1.253 1.7 0 3.362-.433 4.588-1.253 1.054-.706 1.482-1.56 1.482-2.316 0-.756-.427-1.606-1.48-2.307h-.002c-1.22-.816-2.879-1.247-4.58-1.247s-3.366.431-4.597 1.247zm13.062-1.349a.75.75 0 01.897-.567c.79.178 1.564.495 2.218.994.94.707 1.467 1.692 1.467 2.733 0 1.04-.526 2.025-1.467 2.732-.661.507-1.448.838-2.26 1.007a.75.75 0 11-.306-1.468 4.093 4.093 0 001.656-.731l.007-.005c.617-.463.87-1.027.87-1.535s-.253-1.072-.87-1.535l-.005-.004c-.446-.34-1.01-.583-1.64-.724a.75.75 0 01-.567-.897z" clip-rule="evenodd"/></svg>