<svg xmlns="http://www.w3.org/2000/svg" width="20" height="21" fill="none"><path fill="#646464" fill-rule="evenodd" d="M2.49 2.99C3.637 1.845 5.343 1.418 7.5 1.418h5c2.157 0 3.862.427 5.01 1.574C18.655 4.137 19.082 5.843 19.082 8v5c0 2.157-.427 3.863-1.574 5.01-1.147 1.146-2.852 1.573-5.01 1.573h-5c-2.156 0-3.862-.426-5.009-1.573C1.343 16.861.917 15.156.917 13V8c0-2.157.426-3.863 1.573-5.01zm1.061 1.061C2.823 4.78 2.416 5.991 2.416 8v5c0 2.01.407 3.22 1.135 3.949.728.728 1.94 1.134 3.949 1.134h5c2.01 0 3.22-.406 3.949-1.134.728-.728 1.134-1.94 1.134-3.949V8c0-2.01-.406-3.22-1.134-3.949-.728-.728-1.94-1.134-3.95-1.134h-5c-2.009 0-3.22.406-3.948 1.134z" clip-rule="evenodd"/><path fill="#646464" fill-rule="evenodd" d="M7.5 6.25a.917.917 0 100 1.833.917.917 0 000-1.833zm-2.417.917a2.417 2.417 0 114.834 0 2.417 2.417 0 01-4.833 0zm11.403 4.319c-.369-.317-1.003-.317-1.372 0l-3.467 2.975c-.93.8-2.396.8-3.327 0l-.007-.006-.27-.238c-.331-.282-.907-.319-1.291-.061l-4.109 2.758a.75.75 0 01-.836-1.245l4.108-2.758c.932-.625 2.254-.563 3.107.17l.007.006.27.238c.37.315 1.003.314 1.37-.002l3.467-2.975c.932-.8 2.397-.8 3.328 0l1.358 1.166a.75.75 0 01-.977 1.138l-1.358-1.166z" clip-rule="evenodd"/></svg>