<svg xmlns="http://www.w3.org/2000/svg" width="25" height="25" fill="none"><path fill="#F46119" d="M12.948 22.25c5.51 0 10-4.49 10-10s-4.49-10-10-10-10 4.49-10 10 4.49 10 10 10zm.75-6c0 .41-.34.75-.75.75s-.75-.34-.75-.75v-5c0-.41.34-.75.75-.75s.75.34.75.75v5zm-1.67-8.38c.05-.13.12-.23.21-.33.1-.09.21-.16.33-.21.12-.05.25-.08.38-.08s.26.03.38.08.23.12.33.21c.09.1.16.2.21.33.05.12.08.25.08.38s-.03.26-.08.38-.12.23-.21.33c-.1.09-.21.16-.33.21a1 1 0 01-.76 0c-.12-.05-.23-.12-.33-.21-.09-.1-.16-.21-.21-.33a.995.995 0 01-.08-.38c0-.13.03-.26.08-.38z"/></svg>