<svg xmlns="http://www.w3.org/2000/svg" width="24" height="24" fill="currentColor"><path fill-rule="evenodd" d="M9.34 1.469a.75.75 0 01.001 1.06l-3.62 3.63A.75.75 0 014.659 5.1l3.62-3.63a.75.75 0 011.06-.001zm5.32 0a.75.75 0 011.061.001l3.62 3.63a.75.75 0 01-1.062 1.06l-3.62-3.63a.75.75 0 01.001-1.061z" clip-rule="evenodd"/><path fill-rule="evenodd" d="M3.066 6.78c-.106.07-.316.268-.316 1.07 0 1 .233 1.133.272 1.156h.001c.059.034.167.07.386.086.167.012.34.01.553.009L4.22 9.1h15.56l.258.001c.214.002.386.003.553-.01.219-.015.327-.051.386-.085.04-.023.273-.157.273-1.156 0-.802-.21-1-.316-1.07-.187-.126-.516-.18-1.154-.18H4.22c-.638 0-.967.054-1.154.18zm-.835-1.247C2.847 5.12 3.628 5.1 4.22 5.1h15.56c.592 0 1.373.02 1.989.433.696.466.981 1.269.981 2.317 0 1.143-.258 2.014-1.024 2.456-.343.197-.713.259-1.025.282a9.221 9.221 0 01-.724.013l-.197-.001H4.023c-.231.003-.49.005-.724-.012-.312-.023-.682-.085-1.025-.282C1.508 9.864 1.25 8.993 1.25 7.85c0-1.048.285-1.85.981-2.317zM9.76 13.25a.75.75 0 01.75.75v3.55a.75.75 0 01-1.5 0V14a.75.75 0 01.75-.75zm4.6 0a.75.75 0 01.75.75v3.55a.75.75 0 01-1.5 0V14a.75.75 0 01.75-.75z" clip-rule="evenodd"/><path fill-rule="evenodd" d="M20.641 9.263a.75.75 0 01.596.878l-1.68 8.76c-.177.924-.408 1.947-1.128 2.702-.752.788-1.89 1.147-3.539 1.147H8.86c-1.552 0-2.683-.388-3.461-1.176-.757-.766-1.062-1.798-1.229-2.812L2.76 10.12a.75.75 0 111.48-.242l1.41 8.639c.153.925.393 1.574.816 2.002.402.407 1.086.73 2.394.73h6.03c1.461 0 2.108-.32 2.454-.683.377-.396.556-.992.74-1.948l1.68-8.76a.75.75 0 01.877-.596z" clip-rule="evenodd"/></svg>