<svg xmlns="http://www.w3.org/2000/svg" width="24" height="24" fill="currentColor"><path fill-rule="evenodd" d="M12 6.98a2.526 2.526 0 00-2.53 2.53 2.519 2.519 0 002.389 2.518c.092-.007.19-.008.285 0a2.526 2.526 0 002.386-2.52A2.532 2.532 0 0012 6.98zM7.97 9.51A4.026 4.026 0 0112 5.48a4.032 4.032 0 014.03 4.03v.004a4.026 4.026 0 01-3.885 4.015.743.743 0 01-.131-.007h.002-.012l-.031.002a.746.746 0 01-.119.005A4.019 4.019 0 017.97 9.51zm-.523 7.913c-.77.52-1.2 1.113-1.369 1.677A9.178 9.178 0 0012 21.25a9.178 9.178 0 005.922-2.15c-.168-.565-.599-1.158-1.37-1.677-1.21-.81-2.856-1.238-4.544-1.238-1.688 0-3.34.428-4.561 1.238zm4.56-2.738c1.916 0 3.87.481 5.38 1.492h.002c1.202.81 1.968 1.908 2.097 3.123a.75.75 0 01-.24.633A10.684 10.684 0 0112 22.75a10.684 10.684 0 01-7.247-2.817.75.75 0 01-.239-.633c.13-1.215.895-2.313 2.097-3.122l.004-.003c1.519-1.009 3.476-1.49 5.393-1.49z" clip-rule="evenodd"/><path fill-rule="evenodd" d="M12 2.75a9.25 9.25 0 100 18.5 9.25 9.25 0 000-18.5zM1.25 12C1.25 6.063 6.063 1.25 12 1.25S22.75 6.063 22.75 12 17.937 22.75 12 22.75 1.25 17.937 1.25 12z" clip-rule="evenodd"/></svg>