<svg xmlns="http://www.w3.org/2000/svg" width="24" height="24" fill="currentColor"><path fill-rule="evenodd" d="M1.25 12C1.25 6.086 6.086 1.25 12 1.25S22.75 6.086 22.75 12 17.914 22.75 12 22.75 1.25 17.914 1.25 12zM12 2.75c-5.086 0-9.25 4.164-9.25 9.25s4.164 9.25 9.25 9.25 9.25-4.164 9.25-9.25S17.086 2.75 12 2.75z" clip-rule="evenodd"/><path fill-rule="evenodd" d="M12 7.25a.75.75 0 01.75.75v5a.75.75 0 01-1.5 0V8a.75.75 0 01.75-.75zM10.995 16a1 1 0 011-1h.009a1 1 0 110 2h-.01a1 1 0 01-1-1z" clip-rule="evenodd"/></svg>