<svg xmlns="http://www.w3.org/2000/svg" width="21" height="21" fill="none"><path fill="#fff" d="M14.515 19.361a1.458 1.458 0 100-2.916 1.458 1.458 0 000 2.916zm-6.666 0a1.458 1.458 0 100-2.916 1.458 1.458 0 000 2.916zM5.007 3.895l-.166 2.042a.66.66 0 00.666.716h12.759c.35 0 .641-.266.666-.616.109-1.475-1.016-2.675-2.491-2.675H6.199a2.272 2.272 0 00-.508-1.009c-.417-.441-1-.7-1.6-.7H2.64a.63.63 0 00-.625.625.63.63 0 00.625.625h1.45c.258 0 .5.109.675.292a.939.939 0 01.241.7zm13.058 4.008H5.282a.67.67 0 00-.667.609l-.3 3.625a2.435 2.435 0 002.425 2.641h9.267c1.25 0 2.35-1.025 2.441-2.275l.275-3.891a.652.652 0 00-.658-.709z"/></svg>