<svg xmlns="http://www.w3.org/2000/svg" width="24" height="24" fill="currentColor"><path fill-rule="evenodd" d="M10.1 11.93a.75.75 0 010 1.06l-3.05 3.05a.75.75 0 01-1.06-1.06l3.05-3.05a.75.75 0 011.06 0z" clip-rule="evenodd"/><path fill-rule="evenodd" d="M6.02 11.96a.75.75 0 011.06 0l3.05 3.05a.75.75 0 11-1.06 1.06l-3.05-3.05a.75.75 0 010-1.06zM12.53 14a1 1 0 011-1h.01a1 1 0 110 2h-.01a1 1 0 01-1-1zm3.94 0a1 1 0 011-1h.01a1 1 0 110 2h-.01a1 1 0 01-1-1zm-.97.96a1 1 0 011 1v.02a1 1 0 11-2 0v-.02a1 1 0 011-1zm0-3.94a1 1 0 011 1v.02a1 1 0 11-2 0v-.02a1 1 0 011-1z" clip-rule="evenodd"/><path fill-rule="evenodd" d="M3.095 7.094C4.429 5.76 6.426 5.25 9 5.25h6c2.574 0 4.57.51 5.905 1.844C22.24 8.43 22.75 10.426 22.75 13v2c0 2.574-.51 4.57-1.845 5.905C19.571 22.24 17.574 22.75 15 22.75H9c-2.574 0-4.57-.51-5.905-1.845C1.76 19.571 1.25 17.574 1.25 15v-2c0-2.574.51-4.571 1.845-5.906zm1.06 1.061C3.24 9.071 2.75 10.574 2.75 13v2c0 2.426.49 3.929 1.405 4.845.916.915 2.419 1.405 4.845 1.405h6c2.426 0 3.93-.49 4.845-1.405.915-.916 1.405-2.42 1.405-4.845v-2c0-2.426-.49-3.93-1.405-4.845C18.929 7.24 17.426 6.75 15 6.75H9c-2.426 0-3.93.49-4.845 1.405z" clip-rule="evenodd"/><path fill-rule="evenodd" d="M13.017 1.25a.75.75 0 01.743.757l-.01 1.016A1.75 1.75 0 0112 4.75h-.03a.245.245 0 00-.24.25c0 .136.114.25.25.25h1a.75.75 0 010 1.5h-1c-.964 0-1.75-.786-1.75-1.75 0-.955.766-1.75 1.74-1.75H12a.25.25 0 00.25-.252l.01-1.006a.75.75 0 01.757-.742z" clip-rule="evenodd"/></svg>