<svg xmlns="http://www.w3.org/2000/svg" width="24" height="24" fill="currentColor"><path fill-rule="evenodd" d="M3.45 5.03c-.435.435-.7 1.22-.7 2.76v8.42c0 .944.236 1.804.746 2.416.49.587 1.314 1.044 2.714 1.044h6.32c1.533 0 2.32-.265 2.756-.701.437-.435.704-1.222.704-2.76V7.79c0-1.538-.265-2.324-.7-2.759-.435-.435-1.221-.7-2.76-.7H6.21c-1.539 0-2.325.265-2.76.7zM2.39 3.97c.88-.88 2.199-1.14 3.82-1.14h6.32c1.621 0 2.94.26 3.82 1.14.88.88 1.14 2.199 1.14 3.82v8.42c0 1.622-.263 2.941-1.144 3.82-.88.88-2.2 1.14-3.816 1.14H6.21c-1.76 0-3.04-.594-3.866-1.584-.805-.966-1.094-2.21-1.094-3.376V7.79c0-1.621.26-2.94 1.14-3.82z" clip-rule="evenodd"/><path fill-rule="evenodd" d="M19.95 7.505L17.49 9.23v5.53l2.46 1.726.003.001c.57.403.878.337.971.289.095-.05.326-.265.326-.966V8.19c0-.7-.231-.918-.327-.968-.096-.05-.405-.114-.973.283zm1.667-1.612c.804.42 1.133 1.327 1.133 2.297v7.62c0 .969-.328 1.878-1.134 2.297-.806.418-1.738.163-2.527-.394h-.002l-2.778-1.95a.75.75 0 01-.319-.613V8.84a.75.75 0 01.32-.614l2.78-1.951c.791-.552 1.723-.802 2.527-.382zM11.5 8.75a.75.75 0 100 1.5.75.75 0 000-1.5zm-2.25.75a2.25 2.25 0 114.5 0 2.25 2.25 0 01-4.5 0z" clip-rule="evenodd"/></svg>