<svg xmlns="http://www.w3.org/2000/svg" width="17" height="16" fill="none"><path fill="#5F5F5F" d="M14.323 3.487a74.238 74.238 0 00-3.226-.247v-.007l-.147-.866c-.1-.614-.246-1.534-1.807-1.534H7.397c-1.554 0-1.7.88-1.807 1.527l-.14.853c-.62.04-1.24.08-1.86.14l-1.36.134a.501.501 0 00-.453.546.497.497 0 00.546.447l1.36-.133c3.494-.347 7.014-.214 10.547.14h.053a.505.505 0 00.5-.454.51.51 0 00-.46-.546zm-1.225 1.94a.843.843 0 00-.607-.26H4.064a.832.832 0 00-.833.886l.413 6.84c.073 1.014.167 2.28 2.494 2.28h4.28c2.326 0 2.42-1.26 2.493-2.28l.413-6.833a.865.865 0 00-.226-.633zm-3.714 6.406h-2.22a.504.504 0 01-.5-.5c0-.273.227-.5.5-.5h2.22c.274 0 .5.227.5.5 0 .274-.226.5-.5.5zm.56-2.666H6.611a.504.504 0 01-.5-.5c0-.274.227-.5.5-.5h3.333c.273 0 .5.226.5.5 0 .273-.227.5-.5.5z"/></svg>