<svg xmlns="http://www.w3.org/2000/svg" width="24" height="24" fill="currentColor"><path fill-rule="evenodd" d="M6.25 9A.75.75 0 017 8.25h6a.75.75 0 010 1.5H7A.75.75 0 016.25 9zm12.67 1.7c-.36 0-.675.139-.903.373l-.013.013c-.266.26-.415.63-.377 1.023v.008c.053.635.664 1.183 1.413 1.183h1.943a.276.276 0 00.267-.27v-2.06a.276.276 0 00-.267-.27H18.92zm-1.97-.68a2.743 2.743 0 011.97-.82h2.107a1.777 1.777 0 011.723 1.77v2.06A1.777 1.777 0 0121 14.8h-1.96c-1.41 0-2.778-1.03-2.907-2.554a2.758 2.758 0 01.816-2.226z" clip-rule="evenodd"/><path fill-rule="evenodd" d="M7 4.25c-.244 0-.476.017-.696.051l-.02.003c-1.108.139-1.978.613-2.574 1.312-.598.701-.96 1.677-.96 2.884v7c0 1.33.44 2.38 1.155 3.095C4.621 19.31 5.67 19.75 7 19.75h9c1.33 0 2.38-.44 3.095-1.155.715-.716 1.155-1.766 1.155-3.095v-.7h-1.21c-1.41 0-2.778-1.03-2.907-2.554a2.758 2.758 0 01.816-2.226 2.743 2.743 0 011.971-.82h1.33v-.7c0-1.215-.368-2.197-.975-2.9-.606-.702-1.49-1.175-2.612-1.305A3.849 3.849 0 0016 4.25H7zm-.914-1.433c.297-.045.602-.067.914-.067h9c.27 0 .56.01.855.057 1.45.173 2.684.804 3.555 1.813.873 1.011 1.34 2.355 1.34 3.88v1.45a.75.75 0 01-.75.75h-2.08c-.36 0-.675.139-.903.373l-.013.013c-.266.26-.415.63-.377 1.023v.008c.053.635.664 1.183 1.413 1.183H21a.75.75 0 01.75.75v1.45c0 1.67-.56 3.12-1.595 4.155C19.121 20.69 17.67 21.25 16 21.25H7c-1.67 0-3.12-.56-4.155-1.595C1.81 18.621 1.25 17.17 1.25 15.5v-7c0-1.513.458-2.848 1.318-3.857.86-1.008 2.08-1.643 3.518-1.826z" clip-rule="evenodd"/></svg>