<svg xmlns="http://www.w3.org/2000/svg" width="25" height="25" fill="none"><path fill="#616161" fill-rule="evenodd" d="M21.754 2.509l-8 1.6c-.47.09-.8.5-.8.98v5.18c0 .55.45 1 1 1h8c.55 0 1-.45 1-1v-6.78c0-.63-.58-1.1-1.2-.98zm0 19.52l-8-1.6c-.47-.09-.8-.5-.8-.98v-5.18c0-.55.45-1 1-1h8c.55 0 1 .45 1 1v6.78c0 .63-.58 1.1-1.2.98zm-12.01-17.2l-6 1.27c-.46.1-.79.51-.79.98v3.19c0 .55.45 1 1 1h6c.55 0 1-.45 1-1v-4.47c0-.63-.59-1.11-1.21-.97zm0 14.88l-6-1.27c-.46-.1-.79-.51-.79-.98v-3.19c0-.55.45-1 1-1h6c.55 0 1 .45 1 1v4.47c0 .63-.59 1.11-1.21.97z" clip-rule="evenodd"/></svg>